<?xml version="1.0" encoding="utf-8"?>
<!-- Generator: Adobe Illustrator 16.0.0, SVG Export Plug-In . SVG Version: 6.00 Build 0)  -->
<!DOCTYPE svg PUBLIC "-//W3C//DTD SVG 1.1//EN" "http://www.w3.org/Graphics/SVG/1.1/DTD/svg11.dtd">
<svg version="1.1" id="Layer_1" xmlns="http://www.w3.org/2000/svg" xmlns:xlink="http://www.w3.org/1999/xlink" x="0px" y="0px"
	 width="394.313px" height="244.959px" viewBox="0 0 394.313 244.959" enable-background="new 0 0 394.313 244.959"
	 xml:space="preserve">
<g>
	<path fill="#FFFFFF" d="M92.649,163.785H28.97V54.22h0.046c0-9.144,7.439-16.583,16.583-16.583h308.646v8.637l40.066-23.137
		L354.245,0v8.637H44.507v0.028C20.21,9.241,0.569,28.911,0.042,53.22H0v137.61h92.648V163.785z"/>
	<rect x="99.894" y="53.22" fill="#FFFFFF" width="28.971" height="137.61"/>
	<polygon fill="#FFFFFF" points="175.366,53.22 145.905,53.22 145.905,190.83 174.35,190.83 174.35,103.605 229.241,190.83 
		257.623,190.83 257.623,53.22 229.18,53.22 229.18,140.16 	"/>
	<path fill="#FFFFFF" d="M394.314,53.22h-40.734l-52.397,52.396V53.22h-28.969v137.61h28.969V143.31l16.628-16.841l45.729,64.361
		h-0.063c0,9.146-7.438,16.584-16.583,16.584v0.06H42.4v-8.604L2.491,221.914L42.4,244.959v-8.603h304.494v0.058
		c0.763,0,1.519-0.021,2.271-0.058h0.375v-0.024c23.907-1.375,42.938-21.256,42.938-45.502h0.117l-57.506-80.17L394.314,53.22z"/>
</g>
</svg>
